<svg width="1409" height="885" viewBox="0 0 1409 885" fill="none" xmlns="http://www.w3.org/2000/svg">
<g clip-path="url(#clip0_441_11896)">
<rect width="1409" height="885" fill="#0F2643"/>
<g filter="url(#filter0_f_441_11896)">
<circle cx="705" cy="443" r="322" fill="#01E9FF"/>
</g>
<g clip-path="url(#clip1_441_11896)">
<g opacity="0.04">
<mask id="mask0_441_11896" style="mask-type:luminance" maskUnits="userSpaceOnUse" x="-3781" y="0" width="5222" height="2937">
<path d="M-3781 0H1440.33V2937H-3781V0Z" fill="white"/>
</mask>
<g mask="url(#mask0_441_11896)">
<path d="M518.954 349.884H1080.55V-301.749H1018.54V287.881H544.626L300.719 43.9738V-223.13H238.716V69.6725L518.927 349.884H518.954Z" fill="#F0F1F2"/>
<path d="M656.475 165.043H770.175C831.091 164.961 880.421 115.631 880.503 54.715V-715.187C880.53 -747.82 906.99 -774.253 939.596 -774.28H1782.33C1849.17 -774.362 1903.34 -828.533 1903.42 -895.377V-1113.31C1903.34 -1180.16 1849.17 -1234.33 1782.33 -1234.41H1267.7L1204.74 -1299.02L1160.33 -1255.76L1241.54 -1172.41H1782.3C1814.93 -1172.38 1841.36 -1145.95 1841.39 -1113.31V-895.377C1841.36 -862.744 1814.9 -836.311 1782.3 -836.284H939.624C872.78 -836.202 818.608 -782.031 818.527 -715.187V54.7423C818.5 81.42 796.88 103.04 770.202 103.067H656.475V165.07V165.043Z" fill="#F0F1F2"/>
<path d="M656.477 188.837C686.744 188.837 711.273 164.308 711.273 134.04C711.273 103.773 686.744 79.2434 656.477 79.2434C626.209 79.2434 601.68 103.773 601.68 134.04C601.707 164.28 626.236 188.81 656.477 188.837Z" fill="#F0F1F2"/>
<path d="M1223.37 -314.613V558.764C1223.45 625.608 1277.6 679.779 1344.44 679.861H1511.74V260.658H1449.74V617.857H1344.47C1311.86 617.803 1285.43 591.37 1285.38 558.764V-340.284" fill="#F0F1F2"/>
<path d="M1234.87 919.825L1278.71 875.988L887.628 484.932H320.95V546.935H861.929L1234.85 919.852L1234.87 919.825Z" fill="#F0F1F2"/>
<path d="M656.475 2266.03H770.175C831.091 2265.95 880.421 2216.62 880.503 2155.7V1385.8C880.53 1353.17 906.99 1326.73 939.596 1326.71H1782.33C1849.17 1326.63 1903.34 1272.45 1903.42 1205.61V987.674C1903.34 920.83 1849.17 866.659 1782.33 866.577H1267.7L1204.74 801.963L1160.33 845.23L1241.54 928.581H1782.3C1814.93 928.608 1841.36 955.041 1841.39 987.674V1205.61C1841.36 1238.24 1814.9 1264.68 1782.3 1264.7H939.624C872.78 1264.79 818.608 1318.96 818.527 1385.8V2155.68C818.5 2182.35 796.88 2203.97 770.202 2204H656.475V2266V2266.03Z" fill="#F0F1F2"/>
<path d="M-176.841 438.673H155.148V302.537C155.067 235.693 100.896 181.522 34.0517 181.441H-57.0227L-394.941 -156.478H-618.969C-651.575 -156.505 -678.008 -182.938 -678.062 -215.571V-290.111H-11.6351V-2.36674H50.3682V-352.115H-740.066V-215.626C-739.984 -148.782 -685.813 -94.6375 -618.996 -94.5559H-420.612L-82.7213 243.362H34.0244C66.6578 243.389 93.0907 269.85 93.1179 302.483V376.642H-176.868V438.646L-176.841 438.673Z" fill="#F0F1F2"/>
<path d="M1155.41 1132.18H1698.24V1070.18H1181.06L789.458 678.582H135.051L-157.806 385.752L-201.644 429.589L109.407 740.585H763.814L1155.41 1132.18Z" fill="#F0F1F2"/>
<path d="M1056.81 1317.3L1100.64 1273.43L699.472 872.288H31.0599L-348.275 492.953V236.971H-410.279V518.624L5.38835 934.319H673.801L1056.83 1317.33L1056.81 1317.3Z" fill="#F0F1F2"/>
<path d="M320.949 570.701C351.217 570.701 375.746 546.172 375.746 515.904C375.746 485.637 351.217 461.107 320.949 461.107C290.682 461.107 266.153 485.637 266.153 515.904C266.18 546.144 290.709 570.674 320.949 570.701Z" fill="#F0F1F2"/>
</g>
</g>
</g>
</g>
<defs>
<filter id="filter0_f_441_11896" x="-557" y="-819" width="2524" height="2524" filterUnits="userSpaceOnUse" color-interpolation-filters="sRGB">
<feFlood flood-opacity="0" result="BackgroundImageFix"/>
<feBlend mode="normal" in="SourceGraphic" in2="BackgroundImageFix" result="shape"/>
<feGaussianBlur stdDeviation="470" result="effect1_foregroundBlur_441_11896"/>
</filter>
<clipPath id="clip0_441_11896">
<rect width="1409" height="885" fill="white"/>
</clipPath>
<clipPath id="clip1_441_11896">
<rect width="1440" height="917" fill="white"/>
</clipPath>
</defs>
</svg>
