<svg width="64" height="64" viewBox="0 0 64 64" fill="none" xmlns="http://www.w3.org/2000/svg">
<path d="M56 15.9466C47.12 15.0666 38.1867 14.6133 29.28 14.6133C24 14.6133 18.72 14.8799 13.44 15.4133L8 15.9466" stroke="currentColor" stroke-width="4" stroke-linecap="round" stroke-linejoin="round"/>
<path d="M22.667 13.2533L23.2537 9.75992C23.6803 7.22659 24.0003 5.33325 28.507 5.33325H35.4937C40.0003 5.33325 40.347 7.33325 40.747 9.78659L41.3337 13.2533" stroke="currentColor" stroke-width="4" stroke-linecap="round" stroke-linejoin="round"/>
<path d="M50.2677 24.373L48.5344 51.2264C48.241 55.413 48.001 58.6664 40.561 58.6664H23.441C16.001 58.6664 15.761 55.413 15.4677 51.2264L13.7344 24.373" stroke="currentColor" stroke-width="4" stroke-linecap="round" stroke-linejoin="round"/>
<path d="M27.5469 44H36.4269" stroke="currentColor" stroke-width="4" stroke-linecap="round" stroke-linejoin="round"/>
<path d="M25.333 33.3333H38.6663" stroke="currentColor" stroke-width="4" stroke-linecap="round" stroke-linejoin="round"/>
</svg>
