<svg width="32" height="42" viewBox="0 0 32 42" fill="none" xmlns="http://www.w3.org/2000/svg">
<path d="M30.8018 6.72399C31.031 7.23592 30.9037 7.56995 30.8782 7.66798C30.2162 9.99527 28.0517 11.6436 25.589 11.6436H12.4678V17.1151H24.7014C25.2907 17.1151 25.7636 17.5871 25.7636 18.1753V22.0565C25.7636 25.0773 23.3009 27.528 20.267 27.528H12.4641V35.2941C12.4641 38.3148 10.0014 40.7656 6.96755 40.7656H5.12687C4.68306 41.528 3.87186 42 2.98062 42C2.2749 42 1.60192 41.7023 1.13266 41.1758C0.492422 40.4679 0.310537 39.4258 0.714323 38.5C0.994427 37.8646 1.551 37.3745 2.2167 37.1712C3.37349 36.819 4.55574 37.3019 5.12687 38.2931H6.96755C8.62998 38.2931 9.98321 36.9497 9.98321 35.2941V26.1193C9.98321 25.5347 10.4598 25.0591 11.0454 25.0591H20.267C21.9295 25.0591 23.2827 23.7157 23.2827 22.0601V19.5912H11.0491C10.4598 19.5912 9.98685 19.1193 9.98685 18.5311V10.2385C9.98685 9.65398 10.4634 9.17836 11.0491 9.17836H25.4398C26.8367 9.17836 28.1427 8.29609 28.4992 6.96725C28.5101 6.92731 28.6956 6.21569 29.4668 6.05594C29.8269 5.98333 30.5181 6.09588 30.8055 6.73125L30.8018 6.72399Z" fill="#33ABBF"/>
<path d="M31.4854 2.74845C31.4199 3.31847 31.158 3.83403 30.7651 4.21889C30.3759 4.60375 29.8557 4.86153 29.2809 4.92325C28.3242 5.02128 27.4221 4.57833 26.9201 3.78321C26.8873 3.73238 26.8364 3.6997 26.7745 3.6997H6.58525C4.82096 3.6997 3.39498 5.12294 3.39498 6.87658V34.7605C3.39498 35.443 2.83841 35.9949 2.15452 35.9949C1.47427 35.9949 0.914062 35.4394 0.914062 34.7605V6.88021C0.914062 3.76142 3.45318 1.23444 6.58889 1.23444H26.7745C26.8328 1.23444 26.891 1.20177 26.9201 1.15094C27.3748 0.432055 28.1605 0 29.0154 0C29.7211 0 30.3941 0.297719 30.867 0.820542C31.3362 1.34336 31.5618 2.04409 31.4854 2.74845Z" fill="#33ABBF"/>
</svg>
