<svg width="86" height="117" viewBox="0 0 86 117" fill="none" xmlns="http://www.w3.org/2000/svg">
<path d="M83.8026 19.0709C84.4344 20.4848 84.0834 21.4074 84.0132 21.6781C82.1882 28.1059 76.2217 32.6585 69.4329 32.6585H33.263V47.7702H66.9862C68.6107 47.7702 69.9143 49.0738 69.9143 50.6983V61.4179C69.9143 69.7609 63.1255 76.5296 54.7624 76.5296H33.253V97.9789C33.253 106.322 26.4642 113.091 18.1011 113.091H13.0271C11.8037 115.196 9.56755 116.5 7.11076 116.5C5.16539 116.5 3.31026 115.678 2.01669 114.224C0.251815 112.268 -0.249568 109.39 0.863507 106.833C1.63564 105.078 3.16988 103.725 5.00494 103.163C8.19375 102.191 11.4528 103.524 13.0271 106.262H18.1011C22.6838 106.262 26.4141 102.552 26.4141 97.9789V72.6389C26.4141 71.0244 27.7277 69.7108 29.3422 69.7108H54.7624C59.3451 69.7108 63.0754 66.0006 63.0754 61.4279V54.6091H29.3522C27.7277 54.6091 26.4241 53.3055 26.4241 51.681V28.7778C26.4241 27.1633 27.7377 25.8497 29.3522 25.8497H69.0218C72.8724 25.8497 76.4724 23.4129 77.4551 19.7428C77.4852 19.6325 77.9966 17.6671 80.1225 17.2258C81.1152 17.0253 83.0205 17.3362 83.8127 19.091L83.8026 19.0709Z" fill="#0F2643"/>
<path d="M85.6871 8.09097C85.5066 9.66531 84.7846 11.0892 83.7016 12.1522C82.6287 13.2151 81.1947 13.9271 79.6103 14.0976C76.973 14.3683 74.4862 13.1449 73.1024 10.9489C73.0121 10.8085 72.8717 10.7182 72.7012 10.7182H17.0475C12.1841 10.7182 8.2532 14.6491 8.2532 19.4925V96.5052C8.2532 98.3904 6.71896 99.9146 4.83375 99.9146C2.95857 99.9146 1.41431 98.3803 1.41431 96.5052V19.5025C1.41431 10.8887 8.41364 3.90942 17.0575 3.90942H72.7012C72.8617 3.90942 73.0221 3.81917 73.1024 3.67878C74.3558 1.6933 76.5218 0.5 78.8783 0.5C80.8237 0.5 82.6788 1.32227 83.9824 2.76626C85.276 4.21025 85.8977 6.14559 85.6871 8.09097Z" fill="#0F2643"/>
</svg>
