<svg width="16" height="17" viewBox="0 0 16 17" fill="none" xmlns="http://www.w3.org/2000/svg">
<path d="M10.6668 9.09992V11.8999C10.6668 14.2333 9.7335 15.1666 7.40016 15.1666H4.60016C2.26683 15.1666 1.3335 14.2333 1.3335 11.8999V9.09992C1.3335 6.76659 2.26683 5.83325 4.60016 5.83325H7.40016C9.7335 5.83325 10.6668 6.76659 10.6668 9.09992Z" stroke="currentColor" stroke-width="1.5" stroke-linecap="round" stroke-linejoin="round"/>
<path d="M14.6668 5.09992V7.89992C14.6668 10.2333 13.7335 11.1666 11.4002 11.1666H10.6668V9.09992C10.6668 6.76659 9.7335 5.83325 7.40016 5.83325H5.3335V5.09992C5.3335 2.76659 6.26683 1.83325 8.60016 1.83325H11.4002C13.7335 1.83325 14.6668 2.76659 14.6668 5.09992Z" stroke="currentColor" stroke-width="1.5" stroke-linecap="round" stroke-linejoin="round"/>
</svg>
